<?xml version="1.0" encoding="UTF-8"?> <svg xmlns="http://www.w3.org/2000/svg" width="168" height="32" viewBox="0 0 168 32" fill="none"><g clip-path="url(#clip0_0_8791)"><path d="M0 10.1629V2.41785L27.7394 27.0759C29.7147 28.8317 28.4194 32 25.7266 32C24.9799 32 24.2611 31.7296 23.7136 31.2427L0 10.1629Z" fill="#8AFBA5"></path><path d="M0 10.1629V2.41785L27.7394 27.0759C29.7147 28.8317 28.4194 32 25.7266 32C24.9799 32 24.2611 31.7296 23.7136 31.2427L0 10.1629Z" fill="#4CD964" fill-opacity="0.7"></path><path d="M0 10.1629V2.41785L27.7394 27.0759C29.7147 28.8317 28.4194 32 25.7266 32C24.9799 32 24.2611 31.7296 23.7136 31.2427L0 10.1629Z" fill="url(#paint0_linear_0_8791)"></path><path d="M0 19.9857V12.2395L16.6897 27.0761C18.6649 28.8318 17.3696 32 14.6767 32C13.9301 32 13.2112 31.7296 12.6637 31.2429L0 19.9857Z" fill="#8AFBA5"></path><path d="M0 19.9857V12.2395L16.6897 27.0761C18.6649 28.8318 17.3696 32 14.6767 32C13.9301 32 13.2112 31.7296 12.6637 31.2429L0 19.9857Z" fill="#4CD964" fill-opacity="0.7"></path><path d="M0 19.9857V12.2395L16.6897 27.0761C18.6649 28.8318 17.3696 32 14.6767 32C13.9301 32 13.2112 31.7296 12.6637 31.2429L0 19.9857Z" fill="url(#paint1_linear_0_8791)"></path><path d="M0 29.6241V21.879L5.55309 26.8152C6.18986 27.3812 6.5518 28.1762 6.5518 29.009V29.327C6.5518 30.8032 5.30418 32 3.76516 32C3.06268 32 2.3861 31.7455 1.87089 31.2873L0 29.6241Z" fill="#8AFBA5"></path><path d="M0 29.6241V21.879L5.55309 26.8152C6.18986 27.3812 6.5518 28.1762 6.5518 29.009V29.327C6.5518 30.8032 5.30418 32 3.76516 32C3.06268 32 2.3861 31.7455 1.87089 31.2873L0 29.6241Z" fill="#4CD964" fill-opacity="0.7"></path><path d="M0 29.6241V21.879L5.55309 26.8152C6.18986 27.3812 6.5518 28.1762 6.5518 29.009V29.327C6.5518 30.8032 5.30418 32 3.76516 32C3.06268 32 2.3861 31.7455 1.87089 31.2873L0 29.6241Z" fill="url(#paint2_linear_0_8791)"></path><path d="M0 10.1656V2.41965L1.89949 0.731585C2.41157 0.276511 3.0839 0.0236816 3.78197 0.0236816C5.3117 0.0236816 6.5518 1.21316 6.5518 2.68044V3.029C6.5518 3.86569 6.18817 4.66449 5.5484 5.23322L0 10.1656Z" fill="#8AFBA5"></path><path d="M0 19.9545V12.2094L12.7166 0.905681C13.264 0.419052 13.9829 0.148682 14.7292 0.148682C17.4218 0.148682 18.7169 3.31645 16.7419 5.07199L0 19.9545Z" fill="#8AFBA5"></path><path d="M0 29.6285V21.8835L23.7666 0.757011C24.3141 0.270374 25.0329 0 25.7792 0C28.4718 0 29.7669 3.16776 27.7919 4.9233L0 29.6285Z" fill="#8AFBA5"></path><path d="M48.8116 30.848C49.3149 31.3315 49.9512 31.5734 50.7208 31.5734C51.4905 31.5734 52.127 31.3315 52.6302 30.848C53.1334 30.336 53.385 29.7103 53.385 28.9706V24.482L55.5698 22.55L63.5531 30.6774C64.0859 31.2463 64.7371 31.5306 65.5067 31.5306C66.0989 31.5306 66.6909 31.3031 67.283 30.848C67.9045 30.3645 68.2154 29.7529 68.2154 29.0134C68.2154 28.3023 67.9341 27.6623 67.3718 27.0934L59.6127 18.9749L66.306 13.056C67.0165 12.4587 67.3718 11.8187 67.3718 11.136C67.3718 10.624 67.12 10.0978 66.6168 9.55734C66.1136 9.01689 65.5216 8.74666 64.8407 8.74666C64.1007 8.74666 63.4496 9.01689 62.887 9.55734L53.385 18.3691V2.60266C53.385 1.86311 53.1334 1.25155 52.6302 0.767995C52.127 0.255997 51.4905 0 50.7208 0C49.9512 0 49.3149 0.255997 48.8116 0.767995C48.3084 1.25155 48.0568 1.86311 48.0568 2.60266V28.9706C48.0568 29.7103 48.3084 30.336 48.8116 30.848Z" fill="white"></path><path fill-rule="evenodd" clip-rule="evenodd" d="M93.2971 26.3679C94.3923 24.5759 94.9399 22.5137 94.9399 20.1813C94.9399 17.8488 94.3923 15.8008 93.2971 14.0373C92.2314 12.2453 90.7809 10.8515 88.9457 9.85595C87.1399 8.83195 85.1123 8.31995 82.8625 8.31995C80.6129 8.31995 78.5704 8.83195 76.735 9.85595C74.9293 10.8515 73.4789 12.2453 72.3835 14.0373C71.318 15.8008 70.7851 17.8488 70.7851 20.1813C70.7851 22.5137 71.318 24.5759 72.3835 26.3679C73.4789 28.1314 74.9293 29.5111 76.735 30.5066C78.5704 31.5022 80.6129 31.9999 82.8625 31.9999C85.1123 31.9999 87.1399 31.5022 88.9457 30.5066C90.7809 29.5111 92.2314 28.1314 93.2971 26.3679ZM88.6792 16.4266C89.3009 17.4791 89.6117 18.7306 89.6117 20.1813C89.6117 21.6034 89.3009 22.8551 88.6792 23.9359C88.0872 24.9885 87.2731 25.8133 86.2372 26.4106C85.2306 27.0079 84.1058 27.3066 82.8625 27.3066C81.6193 27.3066 80.4796 27.0079 79.4435 26.4106C78.4371 25.8133 77.6231 24.9885 77.0014 23.9359C76.4094 22.8551 76.1135 21.6034 76.1135 20.1813C76.1135 18.7306 76.4094 17.4791 77.0014 16.4266C77.6231 15.3457 78.4371 14.5066 79.4435 13.9093C80.4796 13.3119 81.6193 13.0133 82.8625 13.0133C84.1058 13.0133 85.2306 13.3119 86.2372 13.9093C87.2731 14.5066 88.0872 15.3457 88.6792 16.4266Z" fill="white"></path><path fill-rule="evenodd" clip-rule="evenodd" d="M119.051 0C119.821 0 120.457 0.241776 120.961 0.725332C121.464 1.20888 121.715 1.83466 121.715 2.60266V28.9706C121.715 29.7103 121.464 30.336 120.961 30.848C120.457 31.3315 119.821 31.5734 119.051 31.5734C118.282 31.5734 117.645 31.3315 117.142 30.848C116.652 30.3498 116.401 29.7438 116.388 29.0302C116.024 29.4086 115.58 29.787 115.055 30.1654C114.345 30.6774 113.501 31.1183 112.524 31.488C111.577 31.8294 110.541 32 109.416 32C107.374 32 105.524 31.5023 103.866 30.5066C102.208 29.4826 100.891 28.0889 99.9139 26.3254C98.9668 24.5334 98.4931 22.4854 98.4931 20.1814C98.4931 17.8489 98.9668 15.8009 99.9139 14.0373C100.891 12.2453 102.193 10.8515 103.821 9.856C105.449 8.832 107.255 8.32 109.238 8.32C110.511 8.32 111.681 8.50489 112.746 8.87466C113.812 9.24444 114.729 9.71377 115.499 10.2827C115.828 10.5165 116.124 10.7527 116.387 10.9914V2.60266C116.387 1.86311 116.639 1.25155 117.142 0.767995C117.645 0.255997 118.282 0 119.051 0ZM110.082 27.3066C111.385 27.3066 112.524 26.9937 113.501 26.368C114.478 25.7423 115.233 24.8889 115.766 23.808C116.328 22.7271 116.609 21.5183 116.609 20.1814C116.609 18.816 116.328 17.5929 115.766 16.512C115.233 15.4311 114.478 14.5778 113.501 13.952C112.524 13.3262 111.385 13.0133 110.082 13.0133C108.809 13.0133 107.684 13.3262 106.708 13.952C105.731 14.5778 104.961 15.4311 104.399 16.512C103.866 17.5929 103.599 18.816 103.599 20.1814C103.599 21.5183 103.866 22.7271 104.399 23.808C104.961 24.8889 105.731 25.7423 106.708 26.368C107.684 26.9937 108.809 27.3066 110.082 27.3066Z" fill="white"></path><path d="M131.747 30.848C132.251 30.336 132.502 29.7103 132.502 28.9707V11.3494C132.502 10.6098 132.251 9.99827 131.747 9.5147C131.244 9.0027 130.608 8.7467 129.838 8.7467C129.068 8.7467 128.432 9.0027 127.929 9.5147C127.425 9.99827 127.174 10.6098 127.174 11.3494V28.9707C127.174 29.7103 127.425 30.336 127.929 30.848C128.432 31.3315 129.068 31.5734 129.838 31.5734C130.608 31.5734 131.244 31.3315 131.747 30.848Z" fill="white"></path><path d="M149.167 31.9999C146.651 31.9999 144.461 31.5022 142.596 30.5066C140.761 29.4826 139.34 28.1031 138.333 26.3679C137.356 24.6328 136.868 22.6702 136.868 20.4799C136.868 17.9199 137.401 15.7439 138.467 13.9519C139.562 12.1315 140.983 10.7377 142.729 9.77061C144.476 8.8035 146.326 8.31995 148.279 8.31995C149.789 8.31995 151.21 8.61861 152.542 9.21595C153.904 9.81327 155.103 10.6382 156.139 11.6906C157.175 12.7146 157.989 13.9093 158.581 15.2746C159.202 16.6399 159.513 18.0906 159.513 19.6266C159.483 20.3093 159.202 20.8639 158.669 21.2906C158.136 21.7173 157.515 21.9306 156.805 21.9306H147.053C145.827 21.9306 144.833 20.9754 144.833 19.7973C144.833 18.6191 145.827 17.6639 147.053 17.6639H153.83V17.3653C153.77 16.5405 153.46 15.8008 152.897 15.1466C152.364 14.4924 151.684 13.9804 150.855 13.6106C150.056 13.2124 149.197 13.0133 148.279 13.0133C147.391 13.0133 146.563 13.1271 145.793 13.3546C145.023 13.5822 144.357 13.9662 143.795 14.5066C143.232 15.0471 142.788 15.7725 142.463 16.6826C142.137 17.5928 141.974 18.7448 141.974 20.1386C141.974 21.6746 142.3 22.9831 142.951 24.0639C143.632 25.1165 144.49 25.9271 145.526 26.4959C146.592 27.0365 147.717 27.3066 148.901 27.3066C149.996 27.3066 150.87 27.2213 151.521 27.0506C152.172 26.8799 152.69 26.6808 153.075 26.4533C153.489 26.1973 153.859 25.9839 154.185 25.8133C154.718 25.5573 155.221 25.4293 155.695 25.4293C156.346 25.4293 156.879 25.6426 157.293 26.0693C157.737 26.4959 157.959 26.9937 157.959 27.5626C157.959 28.3306 157.545 29.0274 156.716 29.6533C155.946 30.2791 154.866 30.8337 153.475 31.3173C152.083 31.7725 150.648 31.9999 149.167 31.9999Z" fill="white"></path><path d="M129.838 5.81596C129.039 5.81596 128.343 5.54574 127.751 5.00528C127.189 4.4364 126.907 3.76796 126.907 2.99996C126.907 2.23196 127.189 1.57774 127.751 1.03729C128.343 0.468404 129.039 0.18396 129.838 0.18396C130.637 0.18396 131.318 0.468404 131.88 1.03729C132.472 1.57774 132.769 2.23196 132.769 2.99996C132.769 3.76796 132.472 4.4364 131.88 5.00528C131.318 5.54574 130.637 5.81596 129.838 5.81596Z" fill="white"></path><path d="M164.965 31.5734C164.165 31.5734 163.47 31.3032 162.878 30.7626C162.316 30.1938 162.034 29.5254 162.034 28.7574C162.034 27.9894 162.316 27.3352 162.878 26.7946C163.47 26.2258 164.165 25.9414 164.965 25.9414C165.765 25.9414 166.445 26.2258 167.008 26.7946C167.599 27.3352 167.896 27.9894 167.896 28.7574C167.896 29.5254 167.599 30.1938 167.008 30.7626C166.445 31.3032 165.765 31.5734 164.965 31.5734Z" fill="white"></path></g><defs><linearGradient id="paint0_linear_0_8791" x1="4.59852" y1="12.444" x2="15.1379" y2="22.0908" gradientUnits="userSpaceOnUse"><stop stop-color="#45B742"></stop><stop offset="1" stop-color="#45B742" stop-opacity="0"></stop></linearGradient><linearGradient id="paint1_linear_0_8791" x1="4.59851" y1="12.444" x2="15.1379" y2="22.0908" gradientUnits="userSpaceOnUse"><stop stop-color="#45B742"></stop><stop offset="1" stop-color="#45B742" stop-opacity="0"></stop></linearGradient><linearGradient id="paint2_linear_0_8791" x1="4.59851" y1="12.444" x2="15.1379" y2="22.0908" gradientUnits="userSpaceOnUse"><stop stop-color="#45B742"></stop><stop offset="1" stop-color="#45B742" stop-opacity="0"></stop></linearGradient><clipPath id="clip0_0_8791"><rect width="168" height="32" fill="white"></rect></clipPath></defs></svg> 